<svg width="176" height="147" viewBox="0 0 176 147" fill="none" xmlns="http://www.w3.org/2000/svg">
<path d="M37.5416 35.4495L38.3486 33.5937L37.6683 31.942L37.944 31.6201L38.3553 31.9464L38.1819 30.4147L38.8666 29.3668L40.5318 29.3002L41.9324 30.2992L41.8256 31.9575L40.7274 33.6003L39.7314 36.1888L37.5416 35.4495Z" fill="#EBCEB0"/>
<path d="M37.2442 33.6208L33.1714 46.0726L24.1498 40.4871L20.5395 50.0374L33.3515 56.704L37.1397 55.2632L41.0724 34.5998L37.2442 33.6208Z" fill="#353B83"/>
<path d="M5.64416 138.017L5.46408 139.779L8.67208 141.977L10.5417 140.432L9.02779 138.452L5.82201 136.254L5.64416 138.017Z" fill="#292949"/>
<path d="M5.72411 84.1295L5.17944 89.484L9.98811 107.874L5.52403 137.426L8.80984 138.556L17.4779 109.706L18.8518 101.312L18.8029 83.5434L5.72411 84.1295Z" fill="#C88A7B"/>
<path d="M32.0618 88.6163L25.1478 138.135H22.0043L21.4396 106.394L15.7195 84.1142L32.0618 88.6163Z" fill="#C88A7B"/>
<path d="M22.0245 137.745V139.523L25.4215 141.304L27.1199 139.523L25.4215 137.745H22.0245Z" fill="#292949"/>
<path d="M24.7809 40.427C24.5319 40.0208 24.1984 39.6744 23.7427 39.4169C20.6214 37.6565 15.4459 39.206 12.0578 39.2082C11.0574 49.7331 8.28958 59.7652 6.50217 70.0991C4.6036 81.0747 2.46494 92.0102 0.0906158 102.893C-0.0427729 103.51 9.51898 103.199 10.4216 103.212C19.621 103.368 31.6637 103.337 40.5408 100.557C34.8762 85.3703 32.8064 69.0291 28.3468 53.4471C27.5643 50.7121 26.6328 48.0171 25.928 45.2599C25.5167 43.6637 25.5812 41.7346 24.7809 40.427Z" fill="#353B83"/>
<path d="M20.4012 25.7576C22.7288 26.3948 24.5629 28.5459 24.8186 30.9435C26.0902 29.7603 26.7416 27.9421 26.5059 26.2216C26.2725 24.5011 25.1587 22.9227 23.6159 22.1213C22.173 22.8872 21.0526 24.2392 20.5724 25.7998L20.4012 25.7576Z" fill="#292949"/>
<path d="M25.3433 28.0108C24.1406 21.6662 16.204 22.7628 13.9253 27.8998C12.6314 30.8213 13.9875 34.9571 16.5775 36.9884C16.6331 37.55 16.7064 39.0996 17.1355 39.4748C17.6001 39.881 19.0674 39.4947 19.6432 39.3615C19.8033 39.3238 19.97 39.2794 20.0856 39.164C20.2301 39.0197 20.2546 38.6312 20.2568 38.2027C20.6792 38.1739 21.1105 38.0917 21.5507 37.9474C23.3959 37.3414 24.7342 35.6364 25.2855 33.7761C25.8391 31.9158 25.7057 29.9156 25.3433 28.0108Z" fill="#C88A7B"/>
<path d="M13.7565 49.9464C15.2682 49.9109 16.7755 49.7511 18.2583 49.4625C17.2379 49.6623 16.9 38.7622 16.8644 38.0097C16.7599 35.8474 17.5336 33.7162 18.6674 31.8714C19.799 30.0267 21.2818 28.4238 22.7402 26.8232C23.3471 26.1572 23.974 25.4446 24.1608 24.5655C24.3653 23.591 23.9763 22.5631 23.3316 21.8017C22.3423 20.6317 21.1662 20.0501 19.67 20.0124C16.6488 19.9413 13.4341 21.1468 11.3999 23.4178C8.94113 26.1595 8.23862 30.1754 8.12301 33.7495C8.09189 34.7086 8.11856 35.6743 7.96739 36.6222C7.8051 37.6367 7.44718 38.6068 7.12927 39.5814C6.66018 41.0244 6.27335 42.5184 6.31115 44.0324C6.34894 45.5487 6.85137 47.1027 7.94294 48.1571C9.46357 49.6268 11.7267 49.9908 13.7565 49.9464Z" fill="#292949"/>
<path d="M124.914 38.74L111.617 59.2592L118.587 67.6729L120.656 63.5792L119.585 54.3708L124.914 38.74Z" fill="#8CA6D6"/>
<path d="M131.121 37.7478C132.462 37.6901 133.802 37.6324 135.143 37.5724C135.214 36.5068 135.203 35.4346 135.103 34.3712C135.114 34.5 137.259 33.3722 137.45 33.1147C137.997 32.3777 138.06 31.139 138.288 30.2621C138.773 28.3929 139.227 26.2883 138.24 24.63C137.215 22.9118 135 22.3235 132.997 22.2724C130.485 22.2058 127.68 22.9384 126.388 25.0918C125.221 27.0365 126.693 29.9047 127.113 31.9603C127.319 32.9749 127.635 34.1315 128.58 34.5599C129.08 34.7864 129.689 34.7619 130.136 35.0816C130.921 35.6477 130.745 36.8554 131.121 37.7478Z" fill="#EBCEB0"/>
<path d="M122.426 21.3765C122.277 19.9891 122.128 18.6038 121.977 17.2163C121.921 16.7013 121.868 16.1663 122.035 15.6757C122.313 14.8587 123.142 14.3503 123.976 14.1261C124.809 13.9019 125.685 13.893 126.528 13.7065C127.426 13.509 128.302 13.1094 129.222 13.1493C130.972 13.227 132.31 14.8476 134.04 15.1229C136.434 15.5047 138.633 14.4103 140.078 17.223C140.342 17.7402 140.418 18.3352 140.651 18.868C140.954 19.5539 141.505 20.0978 141.934 20.7128C143.828 23.4189 143.215 27.5236 140.92 29.8169C139.809 30.9291 139.353 31.9347 137.819 32.2899C138.522 30.8647 137.594 25.1882 135.671 24.5533C135.162 24.3846 133.633 25.0062 133.07 25.0883C131.821 25.2704 130.607 25.4702 129.433 25.9563C127.69 26.6778 125.796 27.1884 123.909 27.3283C123.666 27.346 123.397 27.3549 123.215 27.1973C123.044 27.0486 123.008 26.7999 122.984 26.5735C122.799 24.8397 122.613 23.1081 122.426 21.3765Z" fill="#292949"/>
<path d="M153.07 140.553L153.61 142.815L149.62 146.152L146.819 144.429L148.544 141.63L152.532 138.293L153.07 140.553Z" fill="#292949"/>
<path d="M143.915 70.6142L145.551 77.4806L143.477 109.415L153.134 139.771L148.857 141.735L129.505 106.689L127.208 95.4956L126.039 71.8263L143.915 70.6142Z" fill="#8CA6D6"/>
<path d="M117.108 73.337L116.766 103.002L122.364 141.25H126.668L129.387 105.959L135.278 70.6664L117.108 73.337Z" fill="#8CA6D6"/>
<path d="M126.643 140.739V143.063L121.988 145.388L119.66 143.063L121.988 140.739H126.643Z" fill="#292949"/>
<path d="M149.035 79.011C149.095 81.7171 149.008 85.3645 147.968 85.4977C147.772 85.5221 147.586 85.4267 147.414 85.3334C145.614 84.3522 144.34 82.9692 142.566 82.0212C140.705 81.0267 138.577 80.4983 136.49 80.1298C133.369 79.5615 130.178 79.2063 126.999 79.1508C124.5 79.1064 121.988 79.3195 119.498 79.526C117.429 79.6991 115.501 80.3119 113.391 80.1653C111.228 80.0166 109.098 79.355 107.251 78.2206C107.184 78.1785 107.111 78.1319 107.084 78.0586C107.053 77.9765 107.084 77.8877 107.113 77.8055C107.556 76.5979 107.871 75.4013 108.674 74.4001C109.57 73.2834 110.206 71.8627 110.853 70.5906C112.202 67.94 113.471 65.1606 114.416 62.3368C115.841 58.4984 117.469 54.7578 118.847 50.9062C119.801 48.2355 120.672 45.5183 121.968 42.9875C122.982 41.0051 124.789 38.1103 126.968 37.2378C127.706 36.9426 128.518 36.9159 129.311 36.8937C131.719 36.8249 134.129 36.7561 136.537 36.6873C137.415 36.6628 138.328 36.6429 139.129 37.0047C140.327 37.5464 141.005 38.8029 141.599 39.9773C144.255 45.2386 145.952 50.9128 146.899 56.7624C147.394 59.8171 147.852 62.8784 148.21 65.9509C148.608 69.3785 148.882 72.8239 148.939 76.2715C148.946 76.6533 149.006 77.7256 149.035 79.011Z" fill="#8CA6D6"/>
<path d="M132.966 49.9892C132.875 51.3523 133.07 52.7153 133.264 54.0673C134.446 62.3034 136.95 72.0934 138.13 80.3295C131.663 80.274 123.484 79.8456 117.019 79.7901C117.253 76.7043 117.879 72.4353 118.113 69.3496C118.264 67.3716 118.413 65.3869 118.833 63.4444C119.507 60.3121 120.861 57.3662 122.206 54.4447C124.689 49.0502 127.172 43.6556 129.655 38.2611C129.789 37.9725 129.929 37.675 130.173 37.4664C130.467 37.2177 130.867 37.1334 131.249 37.069C133.099 36.7493 135.184 36.4763 137.043 36.7493C137.508 38.4387 135.794 41.3735 135.16 42.9453C134.235 45.2296 133.132 47.4984 132.966 49.9892Z" fill="white"/>
<path d="M58.0999 69.4746L58.4244 73.3885L60.1051 73.3219L60.4786 70.5935L61.2879 70.931L60.6009 67.6165L58.8446 67.4478L58.0999 69.4746Z" fill="#EBCEB0"/>
<path d="M61.2102 68.6622L57.7421 68.1516C57.0284 68.0051 57.2997 61.232 57.2908 60.5838C57.2552 57.2871 56.984 53.8883 57.8488 50.6849C58.678 47.6169 59.7985 44.6266 61.188 41.7673C62.4085 39.2587 63.5134 36.1153 66.23 34.9365C66.568 34.7899 66.9237 34.6701 67.2927 34.6412C68.2553 34.5635 69.149 35.0985 69.9649 35.6135C70.4318 35.9088 70.9076 36.2107 71.261 36.6325C72.6349 38.2797 71.0854 41.6496 69.9494 43.0504C69.2202 43.9495 68.491 44.8508 67.7618 45.7499C64.3337 49.9812 63.9669 54.1725 63.1132 59.4161C62.9998 60.1242 61.9727 68.7111 61.2102 68.6622Z" fill="#B9BBBD"/>
<path d="M69.3244 32.2995C69.2555 32.3239 69.1888 32.3505 69.1221 32.3772C65.903 33.627 63.3753 39.2391 61.9258 42.5357C58.1865 51.0471 56.5525 59.9181 56.2546 69.3241C56.0945 74.3901 56.1545 79.4627 56.3146 84.5309C56.3591 85.9317 57.5751 98.4678 56.9526 98.7675C63.3286 95.6973 69.8135 92.7958 76.6008 91.042C83.3881 89.2883 90.531 88.7133 97.3872 90.3095C95.3019 74.3967 92.2807 58.2043 87.9211 42.8288C87.3986 40.9906 87.0518 39.0282 86.2782 37.2855C85.3889 35.2787 84.0528 34.6859 82.3654 33.4982C81.7874 33.092 81.2049 32.6835 80.5691 32.3994C77.2211 30.9075 72.717 31.0452 69.3244 32.2995Z" fill="#B9BBBD"/>
<path d="M59.5155 82.3867L66.823 112.006L66.9875 133.839L70.5356 134.605L71.9229 114.299L75.4043 77.1143L59.5155 82.3867Z" fill="#DA9E91"/>
<path d="M70.5799 135.216L71.1535 137.432L70.6511 141.776L67.7743 141.781L66.6983 135.501L67.0318 134.451L70.5799 135.216Z" fill="#292949"/>
<path d="M87.4188 79.1162L88.0636 104.71L84.6421 140.858L81.1407 141.113L79.8801 107.976L72.7483 77.933L87.4188 79.1162Z" fill="#DA9E91"/>
<path d="M84.5332 140.254L89.2507 142.756L88.8772 144.956L80.5426 143.937L80.9428 140.769L84.5332 140.254Z" fill="#292949"/>
<path d="M88.4455 82.4191L90.8198 111.989L88.4033 132.268L78.9149 131.731L77.2253 108.675L73.1213 83.5402L73.7594 79.6264L87.434 79.8262L88.4455 82.4191Z" fill="#D27186"/>
<path d="M74.0601 109.836L72.9463 131.047L64.6984 130.623L64.8652 110.508L59.6652 85.2494L60.8524 78.1877L74.7226 79.049L74.0601 109.836Z" fill="#D27186"/>
<path d="M93.3191 82.9465C84.8289 84.2407 70.703 85.2286 62.2128 86.5229C61.7548 71.1962 63.2666 53.4942 66.9703 38.6626C67.6417 35.9719 68.6355 33.0682 70.9876 31.6985C73.5108 30.2311 78.8597 30.4287 80.3981 33.2813C82.6502 37.4549 83.0948 44.097 84.0997 48.739C86.3739 59.2439 91.9118 72.2862 93.3191 82.9465Z" fill="white"/>
<path d="M69.4955 20.8345C70.7604 14.5808 78.5881 15.7574 80.7757 20.8611C82.2163 24.2222 80.1243 29.1505 76.7363 30.5779C76.943 31.4326 77.1142 32.2962 77.2476 33.1642C76.2872 33.2175 75.329 33.2707 74.3686 33.324C74.0707 33.3396 73.7239 33.3351 73.546 33.0954C73.4393 32.9511 73.426 32.7601 73.4193 32.5803C73.3926 31.9743 73.3682 31.3682 73.3415 30.7622C73.2681 30.74 73.1948 30.7178 73.1214 30.6934C71.3051 30.074 70.0046 28.3713 69.4799 26.5287C68.9597 24.6861 69.1153 22.7126 69.4955 20.8345Z" fill="#DA9E91"/>
<path d="M70.2823 22.5438C69.2908 24.4263 69.9043 26.7085 70.4512 28.662C70.9359 30.3936 71.0226 31.4969 69.0507 31.619C67.9391 31.6878 65.9649 31.8344 65.1602 30.862C64.551 30.125 65.2647 28.2758 65.736 27.572C66.0961 27.0348 66.8431 26.8528 67.1877 26.3066C67.33 26.0802 67.3877 25.8138 67.4344 25.5518C67.6256 24.4796 67.6523 23.3807 67.5167 22.2996C67.4233 21.567 67.2544 20.8344 67.3122 20.0974C67.3944 19.0296 68.3415 17.924 68.8928 17.0183C69.9177 15.3355 72.8522 13.3354 74.7464 15.098C75.1776 15.4998 75.3711 16.0903 75.5178 16.6587C75.6067 16.9983 75.6867 17.3513 75.6334 17.6998C75.4222 19.0851 74.1194 19.1117 73.139 19.6268C71.9296 20.2639 70.9159 21.3428 70.2823 22.5438Z" fill="#292949"/>
<path d="M80.2822 24.5121C80.2 25.5044 79.5086 26.5078 79.9109 27.418C80.091 27.8243 80.4578 28.1084 80.7535 28.4392C81.5605 29.345 81.834 30.6903 81.4449 31.838C83.4213 32.0844 85.3954 32.3286 87.3718 32.575C87.6697 32.6128 87.9832 32.6483 88.2611 32.5351C88.8569 32.2953 89.0103 31.5405 89.077 30.9034C89.2126 29.6491 89.3282 28.3016 88.7124 27.1982C88.4278 26.6877 88.001 26.2659 87.7164 25.753C86.3514 23.2911 88.6635 19.7392 86.8672 17.5702C86.0646 16.6023 84.7174 16.3204 83.6503 15.6588C81.7873 14.5067 80.8113 12.2223 78.8772 11.1923C75.2246 9.24758 70.7027 13.3456 72.4323 17.1618C73.8462 20.2786 80.6112 20.5161 80.2822 24.5121Z" fill="#292949"/>
<path d="M69.5642 32.7568C69.5642 32.7568 66.863 70.816 72.7811 78.3217C78.6991 85.8252 81.2312 88.6534 81.2312 88.6534L60.2714 96.6298C60.2714 96.6298 57.5036 43.2684 69.5642 32.7568Z" fill="#B9BBBD"/>
<path d="M58.1639 89.8235L33.5848 89.7392C24.4944 89.7081 17.1513 82.3245 17.1825 73.2492C17.2136 64.1718 24.6078 56.8392 33.696 56.8703L58.2128 56.9547L58.1639 89.8235Z" fill="#EBEBEB"/>
<path d="M59.0333 89.8294L105.335 89.987C113.451 90.0137 120.052 83.467 120.081 75.3619L120.092 71.841C120.119 63.7359 113.563 57.1448 105.446 57.116L59.1444 56.9583L59.0333 89.8294Z" fill="#49529A"/>
<path d="M49.1932 70.6771C47.1124 70.6705 45.0293 70.6638 42.9484 70.6549C42.7528 70.6549 42.5594 70.6527 42.3637 70.6527C42.3682 69.1387 42.3748 67.6247 42.3793 66.1106C42.3815 65.3514 42.3837 64.5922 42.3882 63.833C42.3882 63.5799 42.1748 63.3645 41.9213 63.3623C40.6274 63.3579 39.3336 63.3534 38.0397 63.349C37.7863 63.349 37.5706 63.5621 37.5684 63.8152C37.5617 65.8931 37.5551 67.9732 37.5462 70.0511C37.5462 70.2464 37.5439 70.4396 37.5439 70.6349C36.0278 70.6305 34.5116 70.6238 32.9954 70.6194C32.2351 70.6172 31.4748 70.615 30.7144 70.6105C30.461 70.6105 30.2454 70.8236 30.2431 71.0767C30.2387 72.3687 30.2342 73.6608 30.2298 74.9528C30.2298 75.0971 30.2832 75.2058 30.3632 75.2813C30.4388 75.3657 30.5499 75.4234 30.6967 75.4234C32.7775 75.4301 34.8606 75.4367 36.9415 75.4456C37.1371 75.4456 37.3305 75.4478 37.5262 75.4478C37.5217 76.9618 37.515 78.4759 37.5106 79.9899C37.5084 80.7491 37.5062 81.5083 37.5017 82.2676C37.5017 82.5206 37.7151 82.736 37.9686 82.7382C39.2624 82.7426 40.5563 82.7471 41.8502 82.7515C41.9947 82.7515 42.1036 82.6982 42.1792 82.6183C42.2637 82.5428 42.3215 82.4318 42.3215 82.2853C42.3282 80.2074 42.3348 78.1273 42.3437 76.0494C42.3437 75.8541 42.3459 75.6609 42.3459 75.4656C43.8621 75.47 45.3783 75.4767 46.8945 75.4811C47.6548 75.4833 48.4151 75.4856 49.1754 75.49C49.4289 75.49 49.6445 75.2769 49.6467 75.0238C49.6512 73.7318 49.6556 72.4398 49.6601 71.1477C49.6623 70.8924 49.4467 70.6771 49.1932 70.6771Z" fill="#49529A"/>
<path d="M17.1047 62.993L19.2167 63.6811L20.9485 62.771L21.3287 63.0396L21.0174 63.5191L22.6714 63.1728L23.8853 63.8121L24.132 65.6214L23.1828 67.2486L21.3598 67.3019L19.4523 66.2741L16.52 65.4549L17.1047 62.993Z" fill="#C88A7B"/>
<path d="M11.531 60.7151C10.6418 60.1134 10.0304 59.261 9.95035 58.0023C9.87699 56.8434 10.1504 55.6957 10.3505 54.5524C10.9863 50.9228 10.9019 47.1666 10.106 43.568C9.31231 39.9872 5.12835 44.4893 4.60813 46.1054C4.03234 47.897 4.19463 49.8461 4.05235 51.6975C3.86338 54.1839 3.77445 56.6769 3.78557 59.17C3.79224 60.7461 3.40319 64.4735 5.0661 65.3748C5.51518 65.619 6.03095 65.7033 6.53782 65.7855C7.33149 65.9142 16.8065 67.1063 16.9555 66.6402L18.2649 62.5177C16.2885 62.1136 13.3362 61.936 11.531 60.7151Z" fill="#353B83"/>
<path d="M88.243 56.5745C88.3231 55.8774 88.8988 55.3114 89.5569 55.0605C90.2149 54.8119 90.9419 54.8274 91.64 54.8984C92.4848 54.985 93.3207 55.1471 94.1343 55.3824C94.6034 55.5178 95.0747 55.6843 95.4504 55.9951C95.8239 56.3059 96.0863 56.7921 96.0129 57.2738C95.9618 57.6046 95.7639 57.8887 95.5705 58.1618C95.4349 58.3549 95.2859 58.5592 95.0636 58.6435C94.8791 58.7168 94.6723 58.6946 94.4745 58.6702C93.1184 58.5148 87.994 58.7856 88.243 56.5745Z" fill="#B9BBBD"/>
<path d="M90.0661 55.4264C89.9794 55.4531 89.8927 55.4842 89.8104 55.5241C89.5503 55.6462 89.1835 55.8815 89.0323 56.1346C89.0323 56.1346 88.6655 57.0071 88.9479 56.8206L89.537 56.4321L89.1279 58.47L89.9283 59.9552L92.1581 60.2393L94.1545 59.0561C94.1811 57.7929 94.5013 56.4388 93.1185 55.7839C92.7094 55.5885 92.2537 55.5152 91.8046 55.4442C91.231 55.351 90.6174 55.2644 90.0661 55.4264Z" fill="#DA9E91"/>
<path d="M48.7979 0.0286954C45.2697 -0.257681 40.8301 1.62263 39.7697 4.63069C38.7092 1.62263 33.2959 -0.228821 29.7677 0.057555C20.455 0.814564 17.3025 11.184 21.2509 18.1592C23.3762 21.9131 26.4286 25.1943 29.7611 28.1402C32.5511 30.6088 39.7474 35.8412 39.7697 35.8235C39.7919 35.8412 46.9882 30.6088 49.7783 28.1402C53.1108 25.1943 56.1632 21.9109 58.2885 18.1592C62.2368 11.184 58.1106 0.785705 48.7979 0.0286954Z" fill="#D27186"/>
<g opacity="0.12">
<path opacity="0.12" d="M56.479 19.0394C54.1581 21.8388 51.4703 24.4673 48.5535 26.725C45.7323 28.9072 42.4265 30.8075 38.7872 31.4446C37.0398 31.7488 35.328 31.7066 33.7096 31.3359C36.6797 33.6246 39.9077 35.9645 39.9233 35.9534C39.9455 35.9712 47.1418 30.7387 49.9319 28.2701C53.2644 25.3242 56.3167 22.0408 58.4421 18.2891C59.129 17.0748 59.5714 15.7561 59.7848 14.4041C58.8156 16.0247 57.6951 17.572 56.479 19.0394Z" fill="#040504"/>
</g>
<path d="M56.3232 16.0918C53.8844 16.154 51.4456 16.2161 49.0068 16.276C48.1243 13.0793 47.2417 9.88254 46.3591 6.68578C46.2324 6.22403 45.5432 6.25733 45.3987 6.68578C43.5112 12.2512 41.6238 17.8145 39.7341 23.38C39.6252 23.7018 39.5162 24.0237 39.4051 24.3479C38.1223 20.6849 36.8373 17.022 35.5546 13.359C35.3478 12.7707 35.1433 12.1846 34.9365 11.5964C34.812 11.2412 34.2274 11.1013 34.0273 11.4854C33.0936 13.2658 32.1621 15.044 31.2283 16.8244C28.5005 16.8244 25.7705 16.8244 23.0427 16.8244C22.4024 16.8244 22.4002 17.7612 23.0427 17.7612C25.875 17.7612 28.7051 17.7612 31.5374 17.7612C31.7041 17.7612 31.8908 17.6746 31.9664 17.5303C32.7668 16.0052 33.5649 14.4801 34.3652 12.955C35.6813 16.7134 36.9996 20.4718 38.3157 24.228C38.5225 24.8163 38.727 25.4023 38.9338 25.9906C39.0872 26.4324 39.743 26.4391 39.8942 25.9906C41.7816 20.4252 43.6691 14.8619 45.5587 9.29647C45.6499 9.03007 45.7388 8.76367 45.83 8.49728C46.6014 11.2922 47.3728 14.0849 48.1443 16.8799C48.1976 17.073 48.4088 17.2284 48.6245 17.224C51.19 17.1596 53.7555 17.093 56.3232 17.0286C56.9613 17.0109 56.9657 16.0763 56.3232 16.0918Z" fill="white"/>
<path d="M170.908 54.1315C173.626 51.6788 173.839 47.4899 171.383 44.7753C168.927 42.0606 164.732 41.8483 162.013 44.301C159.295 46.7536 159.082 50.9426 161.538 53.6572C163.994 56.3719 168.189 56.5842 170.908 54.1315Z" fill="#292949"/>
<path d="M171.013 49.4451C170.886 51.9559 168.743 53.8895 166.229 53.7629C163.714 53.6364 161.778 51.4963 161.905 48.9855C162.031 46.4748 164.175 44.5412 166.689 44.6677C169.206 44.7942 171.142 46.9343 171.013 49.4451Z" fill="#DDD9E7"/>
<path d="M167.205 52.0132L165.429 51.9233L164.201 76.1383L165.977 76.2282L167.205 52.0132Z" fill="#DDD9E7"/>
<path d="M167.974 49.4536C167.929 50.3127 167.198 50.9743 166.335 50.9321C165.475 50.8877 164.813 50.1573 164.855 49.296C164.899 48.4368 165.631 47.7753 166.493 47.8175C167.356 47.8619 168.018 48.5945 167.974 49.4536Z" fill="#292949"/>
<g opacity="0.13">
<path opacity="0.13" d="M167.276 50.6745L167.016 55.8137C167.016 55.8137 168.032 55.705 168.581 55.4919L167.525 50.4725L167.276 50.6745Z" fill="#040504"/>
</g>
<path d="M128.66 70.9497C128.528 73.3207 128.711 75.7227 129.06 78.0736C129.784 82.9487 131.416 88.2855 135.978 91.9861C140.807 95.9044 149.157 96.9278 155.071 93.9952C160.717 91.1958 163.463 85.9767 165.028 81.1594C165.744 78.9527 166.237 76.6972 166.571 74.4329C166.747 73.2474 166.913 72.0442 166.933 70.8476C166.933 70.7921 166.938 70.7366 166.94 70.6811C166.98 69.116 163.794 69.0339 163.754 70.6012C163.734 71.3982 163.654 72.1951 163.563 72.9877C163.465 73.849 163.338 74.7104 163.187 75.5673C163.143 75.8159 163.096 76.0623 163.049 76.311C163.045 76.3376 163.041 76.3598 163.036 76.3775C163.034 76.3886 163.032 76.3997 163.029 76.4131C162.998 76.5574 162.969 76.7017 162.938 76.8437C162.82 77.3899 162.689 77.9337 162.547 78.4754C161.927 80.8352 161.084 83.1707 159.864 85.3862C159.795 85.5127 159.721 85.6393 159.65 85.7636C159.75 85.586 159.57 85.8968 159.521 85.9789C159.346 86.2675 159.161 86.5539 158.97 86.8358C158.61 87.3664 158.219 87.8881 157.796 88.392C157.598 88.6273 157.394 88.8604 157.18 89.0869C157.08 89.1934 156.978 89.3 156.876 89.4043C156.807 89.4731 156.736 89.542 156.667 89.613C156.645 89.6352 156.598 89.6796 156.562 89.7129C156.104 90.128 155.624 90.5254 155.104 90.8961C154.846 91.0782 154.581 91.2536 154.308 91.4223C154.179 91.5022 154.046 91.5777 153.917 91.6554C154.27 91.4445 153.706 91.7664 153.612 91.813C152.996 92.1238 152.347 92.3946 151.669 92.6188C151.6 92.641 151.531 92.661 151.462 92.6854C151.453 92.6877 151.447 92.6921 151.438 92.6943C151.433 92.6943 151.431 92.6965 151.427 92.6965C151.267 92.7387 151.107 92.7831 150.947 92.8231C150.564 92.9163 150.173 92.9962 149.779 93.0606C149.413 93.1206 149.041 93.1627 148.67 93.2049C148.646 93.2071 148.608 93.2116 148.572 93.2138C148.599 93.2116 148.632 93.2093 148.672 93.2071C148.617 93.2116 148.561 93.2138 148.506 93.2182C148.486 93.2205 148.472 93.2205 148.477 93.2205C148.461 93.2205 148.446 93.2227 148.428 93.2227C148.179 93.2338 147.93 93.2449 147.681 93.2493C146.805 93.2626 145.945 93.1982 145.075 93.1183C145.071 93.1183 145.064 93.1183 145.06 93.1161C144.977 93.105 144.897 93.0939 144.815 93.0806C144.633 93.054 144.453 93.0229 144.273 92.9896C143.844 92.9119 143.421 92.8164 143.003 92.7076C142.672 92.6211 142.35 92.5145 142.025 92.4168C142.018 92.4146 142.012 92.4124 142.005 92.4102C141.998 92.4079 141.992 92.4057 141.985 92.4013C141.918 92.3746 141.847 92.3502 141.781 92.3236C141.578 92.2459 141.378 92.1637 141.18 92.0772C140.887 91.9506 140.602 91.813 140.322 91.6687C140.169 91.5888 140.015 91.5066 139.866 91.4223C139.789 91.3779 139.373 91.1204 139.473 91.1892C138.944 90.8406 138.441 90.4721 137.977 90.0725C137.754 89.8816 137.539 89.684 137.332 89.482C137.274 89.4265 136.99 89.129 137.103 89.2534C136.994 89.1357 136.885 89.018 136.781 88.9004C135.923 87.9214 135.233 86.8713 134.64 85.788C134.626 85.7636 134.615 85.7414 134.602 85.717C134.586 85.6859 134.566 85.6481 134.555 85.6259C134.493 85.4994 134.431 85.3751 134.371 85.2485C134.229 84.9533 134.095 84.6536 133.971 84.3539C133.731 83.7811 133.515 83.2017 133.322 82.6201C132.944 81.4724 132.65 80.3113 132.426 79.1414C132.374 78.8728 132.326 78.6042 132.281 78.3333C132.259 78.1935 132.237 78.0536 132.214 77.9138C132.274 78.2889 132.197 77.7917 132.185 77.7007C132.112 77.1679 132.052 76.6373 132.001 76.1023C131.914 75.161 131.863 74.2197 131.843 73.2763C131.83 72.5703 131.848 71.8688 131.876 71.1673C131.396 71.2694 130.88 71.2716 130.434 71.245C129.844 71.2095 129.235 71.1207 128.66 70.9497ZM145.044 93.1095C144.82 93.0784 144.962 93.1006 145.044 93.1095V93.1095ZM134.618 85.748C134.622 85.7591 134.624 85.7614 134.618 85.748V85.748Z" fill="#292949"/>
<path d="M125.683 34.5611C123.904 34.4701 122.124 34.3813 120.345 34.2903C119.965 34.2703 119.627 34.5767 119.607 34.9563C119.403 39.0011 119.196 43.0458 118.991 47.0906C118.962 47.6612 118.933 48.2317 118.905 48.8022C118.858 49.7057 120.263 49.7768 120.31 48.8733C120.514 44.8285 120.721 40.7837 120.925 36.7389C120.943 36.4015 120.959 36.0663 120.976 35.7288C122.522 35.8065 124.067 35.8842 125.612 35.9641C126.514 36.0085 126.588 34.6055 125.683 34.5611Z" fill="#DDD9E7"/>
<path d="M127.464 36.7141L125.977 36.6387L126.119 33.8326L127.606 33.9081C128.335 33.9458 128.898 34.5652 128.86 35.2934L128.851 35.4598C128.816 36.1924 128.193 36.7519 127.464 36.7141Z" fill="#292949"/>
<path d="M126.183 36.8691L124.962 36.8069C124.12 36.7647 123.471 36.0477 123.513 35.2063L123.522 35.0132C123.564 34.1718 124.282 33.5236 125.125 33.5658L126.345 33.6279L126.183 36.8691Z" fill="#DDD9E7"/>
<path d="M139.609 35.1718C141.387 35.2628 143.168 35.3516 144.946 35.4426C145.327 35.4626 145.633 35.8 145.613 36.1796C145.409 40.2244 145.202 44.2692 144.998 48.314C144.969 48.8845 144.94 49.455 144.911 50.0256C144.864 50.9291 143.461 50.8581 143.506 49.9545C143.71 45.9098 143.917 41.865 144.122 37.8202C144.139 37.4827 144.155 37.1475 144.173 36.8101C142.628 36.7324 141.083 36.6547 139.537 36.5748C138.633 36.5282 138.704 35.1251 139.609 35.1718Z" fill="#DDD9E7"/>
<path d="M137.619 37.1369L139.106 37.2124L139.249 34.4064L137.761 34.3309C137.032 34.2932 136.41 34.8548 136.374 35.583L136.365 35.7495C136.327 36.4798 136.888 37.0992 137.619 37.1369Z" fill="#292949"/>
<path d="M138.877 37.4179L140.098 37.4801C140.941 37.5223 141.659 36.8741 141.701 36.0327L141.71 35.8395C141.752 34.9982 141.103 34.2811 140.26 34.2389L139.04 34.1768L138.877 37.4179Z" fill="#DDD9E7"/>
<g opacity="0.13">
<path opacity="0.13" d="M131.828 72.6356C131.828 72.6356 131.832 73.6745 131.901 74.8711L128.642 73.3859L128.691 72.1317L131.828 72.6356Z" fill="#040504"/>
</g>
<path d="M118.411 48.8849C118.131 51.4245 118.175 54.0308 118.384 56.5726C118.753 61.0792 119.751 66.023 122.866 69.4951C126.161 73.1691 132.028 74.2192 136.287 71.5885C140.356 69.0777 142.445 64.2959 143.69 59.8737C144.259 57.8469 144.673 55.7712 144.975 53.6889C145.133 52.5967 145.287 51.4889 145.335 50.3856C145.338 50.3345 145.342 50.2835 145.344 50.2324C145.418 48.7894 143.17 48.6718 143.097 50.1192C143.059 50.854 142.979 51.5888 142.892 52.3169C142.799 53.1117 142.683 53.902 142.552 54.6923C142.514 54.921 142.474 55.1496 142.432 55.3761C142.379 55.678 142.465 55.2096 142.414 55.4693C142.388 55.6025 142.363 55.7335 142.336 55.8667C142.236 56.3684 142.13 56.8679 142.012 57.3652C141.505 59.5341 140.842 61.6786 139.915 63.7076C139.855 63.8364 139.795 63.9651 139.735 64.0939C139.849 63.8519 139.698 64.1716 139.658 64.2515C139.524 64.5157 139.386 64.7776 139.242 65.0351C138.971 65.5213 138.682 65.9964 138.368 66.4559C138.221 66.6713 138.07 66.8822 137.912 67.0886C137.839 67.1863 137.763 67.2818 137.688 67.3772C137.637 67.4416 137.586 67.5037 137.534 67.5659C137.492 67.617 137.323 67.8079 137.512 67.5948C137.161 67.9944 136.792 68.3762 136.392 68.7292C136.205 68.8935 136.012 69.0533 135.814 69.2042C135.72 69.2753 135.625 69.3441 135.529 69.4129C135.785 69.2242 135.378 69.5128 135.311 69.5528C134.869 69.8325 134.402 70.0723 133.917 70.2698C133.868 70.2898 133.817 70.3076 133.771 70.3276C133.519 70.4363 134.006 70.2565 133.746 70.3364C133.631 70.372 133.517 70.4119 133.404 70.4474C133.13 70.5296 132.852 70.5984 132.572 70.6517C132.31 70.7027 132.048 70.7383 131.785 70.7693C131.716 70.7782 131.512 70.7893 131.788 70.7715C131.73 70.776 131.672 70.7804 131.614 70.7826C131.439 70.7893 131.263 70.7982 131.085 70.7982C130.467 70.8004 129.86 70.7294 129.249 70.645C129.193 70.6384 129.029 70.6006 129.282 70.6517C129.211 70.6361 129.138 70.6228 129.066 70.6073C128.94 70.5806 128.811 70.5495 128.686 70.5163C128.386 70.4386 128.09 70.3475 127.799 70.241C127.568 70.1566 127.344 70.0545 127.117 69.959C126.861 69.8525 127.33 70.0767 127.088 69.9457C127.041 69.9191 126.992 69.8969 126.946 69.8725C126.806 69.7992 126.665 69.7193 126.53 69.6394C126.328 69.5173 126.13 69.3885 125.936 69.2531C125.83 69.1776 125.725 69.0999 125.623 69.02C125.561 68.9712 125.18 68.647 125.42 68.8602C125.031 68.5138 124.667 68.1475 124.329 67.7502C124.178 67.5704 124.031 67.3861 123.891 67.1974C123.846 67.1397 123.606 66.7911 123.78 67.0487C123.691 66.9177 123.604 66.7867 123.517 66.6513C122.939 65.7389 122.484 64.7599 122.097 63.7542C122.077 63.7032 122.059 63.6521 122.039 63.601C122.132 63.8541 122.064 63.6676 122.041 63.6033C122.001 63.4856 121.961 63.3702 121.921 63.2525C121.83 62.9772 121.746 62.6997 121.663 62.4222C121.51 61.8917 121.374 61.3544 121.257 60.815C121.023 59.7516 120.85 58.6749 120.725 57.5938C120.696 57.3452 120.67 57.0965 120.645 56.8479C120.632 56.7191 120.621 56.5904 120.61 56.4594C120.641 56.8057 120.601 56.3462 120.594 56.2618C120.558 55.7712 120.53 55.2784 120.512 54.7856C120.478 53.9175 120.467 53.0473 120.483 52.1771C120.501 51.1626 120.572 50.1547 120.639 49.1424C120.643 49.0936 120.647 49.0447 120.654 48.9959C120.721 48.392 120.169 47.8459 119.587 47.8171C118.953 47.7882 118.478 48.2788 118.411 48.8849Z" fill="#292949"/>
<path d="M142.586 63.173C143.26 63.3728 143.715 64.041 143.847 64.7314C143.978 65.4218 143.831 66.1322 143.638 66.8071C143.404 67.6218 143.095 68.4144 142.719 69.1736C142.504 69.6109 142.257 70.046 141.883 70.359C141.51 70.6721 140.985 70.843 140.523 70.6854C140.207 70.5766 139.96 70.3324 139.725 70.0949C139.558 69.9261 139.385 69.7441 139.338 69.5132C139.3 69.3179 139.358 69.1181 139.416 68.9294C139.811 67.6218 140.45 62.5359 142.586 63.173Z" fill="#8CA6D6"/>
<path d="M143.397 65.168C143.388 65.0769 143.371 64.9881 143.346 64.8993C143.273 64.6219 143.104 64.22 142.881 64.0269C142.881 64.0269 142.086 63.5119 142.221 63.8227L142.499 64.4709L140.563 63.7094L138.958 64.2334L138.284 66.3756L139.098 68.5468C140.338 68.7954 141.614 69.3504 142.506 68.1072C142.77 67.7387 142.921 67.3036 143.073 66.8773C143.266 66.3246 143.459 65.7385 143.397 65.168Z" fill="#EBCEB0"/>
<path d="M121.199 66.9786C120.583 67.3183 119.787 67.1784 119.203 66.7877C118.618 66.397 118.211 65.7954 117.864 65.1849C117.446 64.4479 117.093 63.6731 116.813 62.8739C116.653 62.4144 116.513 61.9326 116.551 61.4487C116.588 60.9647 116.833 60.4675 117.269 60.2499C117.567 60.1012 117.916 60.0967 118.249 60.0945C118.487 60.0945 118.738 60.0967 118.936 60.2255C119.103 60.3343 119.205 60.5163 119.301 60.6895C119.956 61.886 123.149 65.9019 121.199 66.9786Z" fill="#8CA6D6"/>
<path d="M119.204 66.1587C119.276 66.2142 119.351 66.2652 119.431 66.3118C119.682 66.4539 120.085 66.6138 120.381 66.5916C120.381 66.5916 121.305 66.3851 120.987 66.263L120.329 66.0077L122.23 65.1597L122.979 63.6479L121.919 61.6699L119.796 60.7308C118.751 61.4412 117.459 61.9651 117.726 63.4681C117.804 63.9143 118.008 64.3272 118.211 64.7334C118.469 65.2574 118.751 65.8057 119.204 66.1587Z" fill="#EBCEB0"/>
</svg>
