<svg width="12" height="10" viewBox="0 0 12 10" fill="none" xmlns="http://www.w3.org/2000/svg">
<path d="M11.4286 2.5V8.92857C11.4286 9.52009 10.9487 10 10.3571 10H1.07143C0.479911 10 0 9.52009 0 8.92857V2.5C0 1.90848 0.479911 1.42857 1.07143 1.42857H3.03571L3.31027 0.694196C3.46652 0.276786 3.86607 0 4.3125 0H7.11384C7.56027 0 7.95982 0.276786 8.11607 0.694196L8.39286 1.42857H10.3571C10.9487 1.42857 11.4286 1.90848 11.4286 2.5ZM8.39286 5.71429C8.39286 4.23661 7.19196 3.03571 5.71429 3.03571C4.23661 3.03571 3.03571 4.23661 3.03571 5.71429C3.03571 7.19196 4.23661 8.39286 5.71429 8.39286C7.19196 8.39286 8.39286 7.19196 8.39286 5.71429ZM7.67857 5.71429C7.67857 6.79688 6.79688 7.67857 5.71429 7.67857C4.6317 7.67857 3.75 6.79688 3.75 5.71429C3.75 4.6317 4.6317 3.75 5.71429 3.75C6.79688 3.75 7.67857 4.6317 7.67857 5.71429Z" fill="#C5197D"/>
</svg>
