<svg width="40" height="18" viewBox="0 0 40 18" fill="none" xmlns="http://www.w3.org/2000/svg">
<path d="M35.4828 14.1504H38.7262V11.5242C38.7255 11.0031 38.5591 10.4959 38.251 10.0757C37.943 9.65552 37.5092 9.34421 37.0126 9.1868L28.1753 6.40955L23.9733 2.85755C23.1674 2.17749 22.2333 1.66611 21.2262 1.35371C20.219 1.04131 19.1595 0.934253 18.1102 1.03888L7.27039 2.13534L3.63961 7.82772C3.28291 8.389 3.09385 9.04044 3.09467 9.70548V12.8701" stroke="#C5197D" stroke-linecap="round" stroke-linejoin="round"/>
<path d="M14.0654 14.1504H29.6981" stroke="#C5197D" stroke-linecap="round" stroke-linejoin="round"/>
<path d="M1 13.3428L5.7535 14.1503" stroke="#C5197D" stroke-linecap="round" stroke-linejoin="round"/>
<path d="M8.60277 17.0002C10.1765 17.0002 11.4522 15.7245 11.4522 14.1507C11.4522 12.577 10.1765 11.3013 8.60277 11.3013C7.02905 11.3013 5.7533 12.577 5.7533 14.1507C5.7533 15.7245 7.02905 17.0002 8.60277 17.0002Z" stroke="#C5197D" stroke-linecap="round" stroke-linejoin="round"/>
<path d="M32.5476 17.0002C34.1213 17.0002 35.3971 15.7245 35.3971 14.1507C35.3971 12.577 34.1213 11.3013 32.5476 11.3013C30.9739 11.3013 29.6982 12.577 29.6982 14.1507C29.6982 15.7245 30.9739 17.0002 32.5476 17.0002Z" stroke="#C5197D" stroke-linecap="round" stroke-linejoin="round"/>
<path d="M17.5454 1.09814L18.3858 7.45365V14.1506" stroke="#C5197D" stroke-linecap="round" stroke-linejoin="round"/>
<path d="M28.175 6.4098H11.6953C10.6186 6.31788 7.27012 2.13559 7.27012 2.13559L6.00952 1.30176" stroke="#C5197D" stroke-linecap="round" stroke-linejoin="round"/>
</svg>
