<svg width="84" height="35" viewBox="0 0 84 35" fill="none" xmlns="http://www.w3.org/2000/svg">
<path d="M83.0973 26.7636C83.0455 26.8524 82.9764 26.9363 82.9419 27.0326C82.3052 28.8045 81.0515 29.7373 79.1636 29.799C78.2184 29.8286 77.2683 29.7645 76.3256 29.8311C76.0269 29.8533 75.6272 30.0853 75.4742 30.3419C71.8069 36.551 63.3373 36.5609 59.6972 30.3222C59.3937 29.8039 59.0284 29.8039 58.5645 29.8039C49.6654 29.8064 40.7664 29.8064 31.8698 29.8039C31.5218 29.8039 31.159 29.8015 30.8259 29.7151C30.1892 29.5498 29.8856 29.0809 29.9523 28.4392C30.0164 27.8371 30.3792 27.4546 31.0036 27.3904C31.2972 27.3608 31.5983 27.3731 31.8945 27.3731C40.4406 27.3731 48.9892 27.3731 57.5354 27.3731C57.8537 27.3731 58.1745 27.3731 58.5077 27.3731C58.5768 26.3169 58.5472 25.3149 58.7224 24.35C59.902 17.8571 67.3673 14.8266 72.7817 18.595C73.2728 18.938 73.9169 19.0565 74.4525 19.2662C74.7461 18.3062 74.8572 17.4721 75.2471 16.8058C75.637 16.1395 76.3108 15.6385 76.9771 14.9426C75.7135 14.7131 74.4549 14.3281 73.184 14.2837C66.7775 14.0689 60.3709 13.9357 53.9619 13.7876C44.3645 13.5655 34.7646 13.373 25.1671 13.1287C22.6943 13.067 20.8632 11.8355 19.6835 9.66878C19.1184 8.62734 18.6125 7.55383 17.998 6.32978C13.5559 8.77788 8.67942 9.57993 3.70177 10.2191C7.02349 10.7374 8.82749 12.5512 8.99037 15.9667C10.5797 16.0408 12.1665 16.1222 13.7533 16.1913C27.6399 16.7836 41.5289 17.3734 55.4155 17.9657C55.5241 17.9706 55.6327 17.9731 55.7388 17.9805C56.568 18.0372 57.0813 18.5086 57.0739 19.2021C57.064 19.9202 56.4841 20.436 55.6327 20.4039C52.8489 20.3003 50.0677 20.1695 47.2839 20.051C41.4746 19.8018 35.6653 19.55 29.8585 19.3008C28.2371 19.2317 26.6157 19.17 24.9944 19.1083C24.7402 19.0984 24.4835 19.1058 24.0664 19.1058C24.3749 19.4415 24.5699 19.6488 24.7624 19.8585C27.2475 22.588 27.8521 26.4575 26.3072 29.7497C24.7599 33.0492 21.3666 35.1518 17.845 34.9889C14.0692 34.8161 10.8388 32.4569 9.62213 28.9205C9.44692 28.4145 9.1952 28.1924 8.70903 28.0592C6.80879 27.5385 4.91595 26.9906 3.02064 26.4427C1.0513 25.8727 0.00987139 24.4956 0.00246785 22.4572C-0.00246785 21.0776 0.00246785 19.6981 0 18.3186C0 17.519 0.306013 16.8749 0.876086 16.3048C1.1056 16.0778 1.27341 15.6805 1.28081 15.3572C1.3203 13.7629 1.29562 12.1662 1.30056 10.5695C1.30549 8.77048 2.15937 7.85244 3.94609 7.61306C5.97959 7.34159 8.06986 7.23054 10.0219 6.66294C12.8353 5.84361 15.5647 4.71827 18.2991 3.64476C21.1865 2.51202 23.9776 1.08067 27.0772 0.5945C29.0194 0.290954 30.9937 0.0836551 32.9581 0.0392339C36.7981 -0.0446729 40.638 0.036766 44.4805 0.00715186C48.0786 -0.0199945 51.119 1.20406 53.6386 3.79777C55.9954 6.22366 58.3991 8.6002 60.8176 10.9619C61.1236 11.2605 61.6369 11.4851 62.0639 11.4999C65.8199 11.6406 69.5809 11.6628 73.3345 11.8454C76.0837 11.9787 78.6453 12.7709 80.817 14.5773C82.0584 15.6089 82.7123 16.9662 83.0998 18.4889C83.0973 21.2454 83.0973 24.0045 83.0973 26.7636ZM40.2111 11.0483C46.0377 11.1742 51.8149 11.3 57.8315 11.4308C55.7931 9.39978 53.8583 7.65501 52.1407 5.72022C48.8362 1.99377 44.5397 2.34667 40.2111 2.50955C40.2111 5.37719 40.2111 8.17573 40.2111 11.0483ZM61.0002 25.959C60.9978 29.6065 63.9518 32.5729 67.582 32.563C71.1974 32.5531 74.1761 29.5547 74.1613 25.9368C74.1465 22.3387 71.2196 19.4168 67.6017 19.3921C63.9542 19.3699 61.0002 22.3066 61.0002 25.959ZM24.7007 25.9319C24.6834 22.3116 21.7763 19.4094 18.151 19.3946C14.5109 19.3822 11.5372 22.3387 11.5396 25.9689C11.5421 29.5868 14.543 32.5803 18.151 32.5655C21.7861 32.5482 24.718 29.5818 24.7007 25.9319ZM37.6815 2.44785C34.3129 2.48981 31.048 2.28251 27.8102 2.89453C27.2574 2.99818 27.1241 3.23016 27.129 3.74841C27.1537 5.85348 27.1364 7.96103 27.1414 10.0661C27.1414 10.2709 27.1809 10.4782 27.2179 10.8336C30.7222 10.8336 34.1871 10.8336 37.6791 10.8336C37.6815 8.10169 37.6815 5.3303 37.6815 2.44785ZM12.9192 18.5777C9.28157 18.4247 5.88335 18.284 2.4407 18.1384C2.4407 19.7598 2.37654 21.2479 2.48019 22.7237C2.51227 23.1605 2.93674 23.8095 3.32419 23.9428C5.19729 24.5844 7.11727 25.083 9.09155 25.653C9.30378 22.7508 10.5254 20.4631 12.9192 18.5777ZM76.4958 27.3509C77.52 27.3509 78.4331 27.383 79.3437 27.341C80.0002 27.309 80.5604 26.9264 80.5974 26.2749C80.6788 24.8337 80.6221 23.3851 80.6221 21.9266C78.8971 21.8303 77.2633 21.7365 75.5087 21.6378C76.4045 23.4838 76.7796 25.3075 76.4958 27.3509ZM24.6711 3.67684C23.1681 4.29134 21.7491 4.87128 20.2536 5.48084C21.5344 7.46005 21.833 10.076 24.6711 10.609C24.6711 8.28431 24.6711 6.05585 24.6711 3.67684ZM80.6344 19.4513C80.5949 18.0496 80.0323 16.9292 79.4474 16.9859C77.7372 17.1513 76.9697 17.9237 77.2263 19.2687C78.1246 19.3279 79.0353 19.3921 79.9459 19.4489C80.1532 19.4637 80.3654 19.4513 80.6344 19.4513ZM3.77334 15.7347C4.71605 15.7841 5.5872 15.8285 6.45589 15.8754C6.53733 14.0862 5.45394 12.9362 3.77334 12.9411C3.77334 13.8419 3.77334 14.7451 3.77334 15.7347Z" fill="#C5197D"/>
<path d="M63.7672 25.9876C63.7623 23.8604 65.433 22.1798 67.5578 22.1748C69.6728 22.1699 71.3879 23.8628 71.3953 25.963C71.4027 28.0458 69.6703 29.7881 67.585 29.798C65.4898 29.8079 63.7722 28.0952 63.7672 25.9876ZM67.5578 24.6155C66.7731 24.6205 66.1882 25.2226 66.2054 26.0099C66.2227 26.7428 66.8175 27.34 67.543 27.3548C68.2908 27.3696 68.9472 26.7329 68.9522 25.9852C68.9596 25.2251 68.3303 24.6106 67.5578 24.6155Z" fill="#C5197D"/>
<path d="M21.9305 25.9778C21.928 28.0878 20.2203 29.8004 18.1226 29.7955C16.0373 29.7906 14.2999 28.0507 14.3024 25.9704C14.3048 23.8727 16.0175 22.1723 18.13 22.1748C20.2573 22.1748 21.933 23.8529 21.9305 25.9778ZM19.4923 25.9358C19.4725 25.1535 18.858 24.5859 18.0683 24.6155C17.3304 24.6451 16.7431 25.2473 16.7431 25.9753C16.7431 26.723 17.3971 27.3647 18.1448 27.3548C18.9074 27.3425 19.5095 26.7058 19.4923 25.9358Z" fill="#C5197D"/>
</svg>
