<svg width="28" height="24" viewBox="0 0 28 24" fill="none" xmlns="http://www.w3.org/2000/svg">
<g clip-path="url(#clip0_1_5696)">
<path d="M27.3522 12.7543C27.2826 13.2387 27.2308 13.7269 27.1401 14.2074C26.6341 16.8895 25.3538 19.1419 23.326 20.9613C21.5512 22.5537 19.4788 23.5676 17.1145 23.8748C12.6294 24.4576 8.91035 22.9968 5.9844 19.5389C5.95079 19.4991 5.92247 19.4544 5.87494 19.3887C6.3238 19.0377 6.76449 18.6935 7.2047 18.3493C10.5954 22.7188 16.6028 23.3631 20.7346 20.7693C24.8919 18.1597 26.6379 13.2223 25.047 8.57681C23.519 4.11564 19.0376 1.27082 14.2236 1.77296C9.39329 2.27654 5.88503 6.05891 5.21055 10.2825C6.27867 10.2825 7.34296 10.2825 8.39525 10.2825C6.98004 11.6977 5.57443 13.1033 4.1885 14.4887C2.81362 13.111 1.40561 11.7005 0 10.2921C1.12622 10.2921 2.28219 10.2921 3.41801 10.2921C3.58939 9.61806 3.70412 8.95462 3.92639 8.32958C5.53698 3.79832 8.6852 0.96598 13.4387 0.169564C19.1385 -0.78527 24.4532 2.35431 26.5659 7.74199C26.9759 8.78708 27.2178 9.87345 27.3052 10.9939C27.3119 11.0808 27.3364 11.1667 27.3527 11.2527C27.3522 11.7534 27.3522 12.2541 27.3522 12.7543Z" fill="#C5197D"/>
<path d="M19.3771 16.4876C18.9408 16.9235 18.5442 17.3195 18.1093 17.7544C18.0258 17.6551 17.9365 17.5317 17.8304 17.4251C16.5429 16.1342 15.2549 14.8434 13.9611 13.5583C13.7317 13.3302 13.616 13.0782 13.6174 12.7503C13.6246 10.8733 13.6217 8.99628 13.6222 7.11926C13.6222 7.04101 13.6222 6.96276 13.6222 6.86963C14.1954 6.86963 14.746 6.86963 15.3384 6.86963C15.3384 6.9594 15.3384 7.05349 15.3384 7.1471C15.3379 8.83642 15.3408 10.5257 15.3331 12.2151C15.3322 12.4167 15.385 12.5612 15.5314 12.7062C16.7445 13.9073 17.949 15.117 19.1578 16.3224C19.2264 16.3911 19.3143 16.441 19.3771 16.4876Z" fill="#C5197D"/>
</g>
<defs>
<clipPath id="clip0_1_5696">
<rect width="27.3522" height="24" fill="white"/>
</clipPath>
</defs>
</svg>
