<?xml version="1.0" encoding="UTF-8"?>
<svg version="1.1" xmlns="http://www.w3.org/2000/svg" width="200" height="200">
<path d="M0 0 C66 0 132 0 200 0 C200 66 200 132 200 200 C134 200 68 200 0 200 C0 134 0 68 0 0 Z " fill="#DCDDDF" transform="translate(0,0)"/>
<path d="M0 0 C0.91201172 -0.00773437 1.82402344 -0.01546875 2.76367188 -0.0234375 C8.41073885 -0.00724519 13.27014006 0.64956072 18.6875 2.25 C18.6875 3.24 18.6875 4.23 18.6875 5.25 C19.9559375 5.559375 19.9559375 5.559375 21.25 5.875 C25.5711814 7.60347256 28.68134984 9.67920258 31.6875 13.25 C32.78148717 16.18387468 33.3273701 18.22596802 33.6875 21.25 C33.79578125 22.01699219 33.9040625 22.78398438 34.015625 23.57421875 C35.04541685 32.42229874 34.7755405 41.35790964 34.6875 50.25 C35.3475 50.25 36.0075 50.25 36.6875 50.25 C36.93167384 57.38530219 36.86501479 64.3814194 34.6875 71.25 C34.0275 71.91 33.3675 72.57 32.6875 73.25 C31.6975 73.25 30.7075 73.25 29.6875 73.25 C29.50574219 74.46236328 29.50574219 74.46236328 29.3203125 75.69921875 C29.15273437 76.76785156 28.98515625 77.83648437 28.8125 78.9375 C28.65007812 79.99324219 28.48765625 81.04898438 28.3203125 82.13671875 C27.72856931 85.04794914 26.8843194 87.53955607 25.6875 90.25 C25.0275 90.25 24.3675 90.25 23.6875 90.25 C23.82850857 92.52113803 23.97546755 94.79190725 24.125 97.0625 C24.20621094 98.32707031 24.28742188 99.59164062 24.37109375 100.89453125 C24.55934547 104.24181893 24.55934547 104.24181893 25.6875 107.25 C27.78469872 108.27281518 27.78469872 108.27281518 30.25 108.9375 C31.07628906 109.18886719 31.90257812 109.44023437 32.75390625 109.69921875 C33.39199219 109.88097656 34.03007812 110.06273437 34.6875 110.25 C34.6875 111.9 34.6875 113.55 34.6875 115.25 C35.55632812 115.52199219 36.42515625 115.79398437 37.3203125 116.07421875 C40.551877 117.20264208 43.49410483 118.55221199 46.5625 120.0625 C52.910423 123.04332722 59.34257856 125.18292089 66.05859375 127.171875 C74.14926591 129.57556232 82.53679798 132.18539462 87.25 139.75 C88.6875 143.25 88.6875 143.25 88.6875 149.25 C29.2875 149.25 -30.1125 149.25 -91.3125 149.25 C-91.3125 142.6266011 -90.64527539 141.45746155 -87.3125 136.25 C-86.6525 136.25 -85.9925 136.25 -85.3125 136.25 C-85.3125 135.59 -85.3125 134.93 -85.3125 134.25 C-79.47643475 129.5557736 -73.29368492 127.97843779 -66.18359375 126.13232422 C-58.86713366 124.21099761 -51.86207473 121.69143845 -45.1796875 118.10546875 C-43.3125 117.25 -43.3125 117.25 -40.3125 117.25 C-40.3125 116.59 -40.3125 115.93 -40.3125 115.25 C-39.3225 115.25 -38.3325 115.25 -37.3125 115.25 C-37.291875 114.5075 -37.27125 113.765 -37.25 113 C-36.18135846 109.86531815 -35.63171518 109.53319198 -32.875 107.9375 C-29.3125 106.25 -29.3125 106.25 -27.3125 106.25 C-26.706293 96.30234889 -26.706293 96.30234889 -30.3125 87.25 C-30.3125 86.59 -30.3125 85.93 -30.3125 85.25 C-30.9725 85.25 -31.6325 85.25 -32.3125 85.25 C-32.49425781 84.49074219 -32.67601562 83.73148437 -32.86328125 82.94921875 C-33.11464844 81.95535156 -33.36601563 80.96148437 -33.625 79.9375 C-33.86863281 78.95136719 -34.11226562 77.96523437 -34.36328125 76.94921875 C-35.34570789 74.15556932 -36.24990874 73.2522495 -38.3125 71.25 C-40.66825439 64.49767725 -40.55409951 57.31007455 -40.3125 50.25 C-39.3225 50.25 -38.3325 50.25 -37.3125 50.25 C-37.47363281 49.58613281 -37.63476562 48.92226562 -37.80078125 48.23828125 C-38.4191939 44.62694019 -38.50426777 41.0898569 -38.5 37.4375 C-38.49919434 36.72480957 -38.49838867 36.01211914 -38.49755859 35.27783203 C-38.43847514 30.21634939 -37.90640239 26.03170716 -36.3125 21.25 C-35.94125 20.095 -35.57 18.94 -35.1875 17.75 C-34.89875 16.925 -34.61 16.1 -34.3125 15.25 C-33.6525 15.25 -32.9925 15.25 -32.3125 15.25 C-32.044375 14.610625 -31.77625 13.97125 -31.5 13.3125 C-30.3125 11.25 -30.3125 11.25 -27.3125 10.25 C-26.9825 9.26 -26.6525 8.27 -26.3125 7.25 C-23.984375 5.93359375 -23.984375 5.93359375 -21.0625 4.6875 C-19.63164062 4.06681641 -19.63164062 4.06681641 -18.171875 3.43359375 C-17.22828125 3.04300781 -16.2846875 2.65242188 -15.3125 2.25 C-14.58160156 1.87488281 -13.85070312 1.49976563 -13.09765625 1.11328125 C-8.76736381 -0.22892721 -4.50522809 -0.03772696 0 0 Z " fill="#C0C1C4" transform="translate(101.3125,50.75)"/>
</svg>
