<svg width="45" height="45" viewBox="0 0 45 45" fill="none" xmlns="http://www.w3.org/2000/svg">
<path fill-rule="evenodd" clip-rule="evenodd" d="M22.5 45C10.0736 45 0 34.9264 0 22.5C0 10.0736 10.0736 0 22.5 0C34.9264 0 45 10.0736 45 22.5C45 34.9264 34.9264 45 22.5 45ZM34.9639 38.5714C34.7957 38.3239 34.5836 38.0164 34.4132 37.7764C34.1164 37.3543 33.8196 36.9321 33.5539 36.5143C33.5411 36.495 32.0732 34.5257 26.7857 34.2857C24.9461 34.2857 23.6089 32.9057 23.6057 31.0007L23.5714 30C23.5543 30.1586 23.5714 29.8554 23.5714 30V28.9286L24.6429 27.8571C25.4261 27.4939 26.4214 26.8832 27.2089 26.2886L27.3536 26.1889C27.9761 25.7936 28.8461 24.9611 28.9286 24.6429L28.9671 24.2346C29.3668 22.1743 30 18.4264 30 17.1429C30 12.0964 27.5464 9.64286 22.5 9.64286C17.3839 9.64286 15 12.0257 15 17.1429C15 18.4607 15.6332 22.1904 16.0318 24.2314L16.0693 24.6086C16.1368 24.9439 16.9254 25.7379 17.6218 26.175L17.7268 26.2414C18.5711 26.8318 19.5804 27.4896 20.3571 27.8571L21.4286 28.9286V30C21.4286 29.8436 21.4436 30.1479 21.4286 30L21.3932 31.0007C21.3932 32.9025 20.0582 34.2836 18.3043 34.2836C18.3032 34.2836 18.3021 34.2836 18.3011 34.2836C12.9911 34.4989 11.4514 36.5089 11.4493 36.5089C11.1793 36.9332 10.8836 37.3543 10.5846 37.7775C10.4164 38.0175 10.2043 38.3239 10.035 38.5714C13.4818 41.2479 17.7975 42.8571 22.4989 42.8571C27.2004 42.8571 31.5171 41.2479 34.9639 38.5714ZM22.5 2.14286C11.2575 2.14286 2.14286 11.2575 2.14286 22.5C2.14286 28.2707 4.55357 33.4682 8.41071 37.1721C8.82 36.5668 9.25714 35.9625 9.64286 35.3571C9.64286 35.3571 11.4321 32.4182 18.2143 32.1429C18.9054 32.1429 19.2504 31.6907 19.2504 31.0007H19.2514C19.2504 30.4425 19.2504 30 19.2504 30C19.2504 29.8607 19.2279 29.7354 19.2214 29.6004C18.4457 29.2339 17.5457 28.7282 16.5011 27.9996C16.5011 27.9996 13.9296 26.4182 13.9296 24.6429C13.9296 24.6429 12.8582 19.1614 12.8582 17.1429C12.8582 12.1671 14.9861 7.5 22.5011 7.5C29.9154 7.5 32.1439 12.1671 32.1439 17.1429C32.1439 19.1121 31.0725 24.6429 31.0725 24.6429C31.0725 26.3689 28.5011 27.9996 28.5011 27.9996C27.4779 28.7721 26.5714 29.2875 25.7764 29.6561C25.7711 29.7729 25.7518 29.88 25.7518 30C25.7518 30 25.7507 30.4425 25.7507 31.0007H25.7518C25.7496 31.6907 26.0946 32.1429 26.7857 32.1429C33.6686 32.4514 35.3571 35.3571 35.3571 35.3571C35.7429 35.9625 36.1789 36.5668 36.5882 37.1721C40.4454 33.4682 42.8571 28.2707 42.8571 22.5C42.8571 11.2575 33.7425 2.14286 22.5 2.14286Z" fill="#C5197D"/>
</svg>
