<svg width="45" height="45" viewBox="0 0 45 45" fill="none" xmlns="http://www.w3.org/2000/svg">
<circle cx="22.5" cy="22.5" r="22.5" fill="#F6F6F6"/>
<path d="M14.948 26.096C14.508 26.096 14.016 26.08 13.472 26.048C12.936 26.016 12.46 25.976 12.044 25.928V24.98C13.084 25.084 13.952 25.136 14.648 25.136C15.08 25.136 15.42 25.12 15.668 25.088C15.924 25.048 16.14 24.98 16.316 24.884C16.476 24.788 16.58 24.648 16.628 24.464C16.676 24.272 16.7 24.02 16.7 23.708C16.7 23.332 16.68 23.068 16.64 22.916C16.6 22.756 16.504 22.64 16.352 22.568C16.208 22.496 15.956 22.444 15.596 22.412L13.556 22.184C13.06 22.128 12.684 22.012 12.428 21.836C12.18 21.652 12.012 21.416 11.924 21.128C11.844 20.832 11.804 20.448 11.804 19.976C11.804 19.32 11.916 18.824 12.14 18.488C12.372 18.152 12.692 17.928 13.1 17.816C13.516 17.704 14.072 17.648 14.768 17.648C15.232 17.648 15.704 17.668 16.184 17.708C16.664 17.748 17.044 17.796 17.324 17.852V18.764C17.02 18.716 16.644 18.68 16.196 18.656C15.748 18.624 15.332 18.608 14.948 18.608C14.5 18.608 14.14 18.628 13.868 18.668C13.596 18.708 13.384 18.776 13.232 18.872C13.064 18.968 12.956 19.096 12.908 19.256C12.86 19.416 12.836 19.644 12.836 19.94C12.836 20.268 12.86 20.508 12.908 20.66C12.956 20.804 13.048 20.912 13.184 20.984C13.32 21.048 13.544 21.096 13.856 21.128L15.872 21.356C16.352 21.404 16.724 21.488 16.988 21.608C17.252 21.728 17.444 21.944 17.564 22.256C17.676 22.544 17.732 23.004 17.732 23.636C17.732 24.364 17.62 24.908 17.396 25.268C17.172 25.62 16.872 25.848 16.496 25.952C16.12 26.048 15.604 26.096 14.948 26.096ZM22.8549 26.096C21.7589 26.096 20.9829 25.988 20.5269 25.772C20.0709 25.556 19.7789 25.18 19.6509 24.644C19.5309 24.1 19.4709 23.176 19.4709 21.872C19.4709 20.568 19.5309 19.648 19.6509 19.112C19.7789 18.568 20.0709 18.188 20.5269 17.972C20.9829 17.756 21.7589 17.648 22.8549 17.648C23.9429 17.648 24.7149 17.756 25.1709 17.972C25.6349 18.188 25.9269 18.568 26.0469 19.112C26.1749 19.648 26.2389 20.568 26.2389 21.872C26.2389 23.176 26.1749 24.1 26.0469 24.644C25.9269 25.18 25.6349 25.556 25.1709 25.772C24.7149 25.988 23.9429 26.096 22.8549 26.096ZM22.8549 25.136C23.6709 25.136 24.2229 25.084 24.5109 24.98C24.7989 24.876 24.9869 24.616 25.0749 24.2C25.1629 23.784 25.2069 23.008 25.2069 21.872C25.2069 20.736 25.1629 19.96 25.0749 19.544C24.9869 19.128 24.7989 18.868 24.5109 18.764C24.2229 18.66 23.6709 18.608 22.8549 18.608C22.0389 18.608 21.4829 18.66 21.1869 18.764C20.8989 18.868 20.7109 19.128 20.6229 19.544C20.5349 19.96 20.4909 20.736 20.4909 21.872C20.4909 23.008 20.5349 23.784 20.6229 24.2C20.7109 24.616 20.8989 24.876 21.1869 24.98C21.4829 25.084 22.0389 25.136 22.8549 25.136ZM31.1082 26.096C30.6682 26.096 30.1762 26.08 29.6322 26.048C29.0962 26.016 28.6202 25.976 28.2042 25.928V24.98C29.2442 25.084 30.1122 25.136 30.8082 25.136C31.2402 25.136 31.5802 25.12 31.8282 25.088C32.0842 25.048 32.3002 24.98 32.4762 24.884C32.6362 24.788 32.7402 24.648 32.7882 24.464C32.8362 24.272 32.8602 24.02 32.8602 23.708C32.8602 23.332 32.8402 23.068 32.8002 22.916C32.7602 22.756 32.6642 22.64 32.5122 22.568C32.3682 22.496 32.1162 22.444 31.7562 22.412L29.7162 22.184C29.2202 22.128 28.8442 22.012 28.5882 21.836C28.3402 21.652 28.1722 21.416 28.0842 21.128C28.0042 20.832 27.9642 20.448 27.9642 19.976C27.9642 19.32 28.0762 18.824 28.3002 18.488C28.5322 18.152 28.8522 17.928 29.2602 17.816C29.6762 17.704 30.2322 17.648 30.9282 17.648C31.3922 17.648 31.8642 17.668 32.3442 17.708C32.8242 17.748 33.2042 17.796 33.4842 17.852V18.764C33.1802 18.716 32.8042 18.68 32.3562 18.656C31.9082 18.624 31.4922 18.608 31.1082 18.608C30.6602 18.608 30.3002 18.628 30.0282 18.668C29.7562 18.708 29.5442 18.776 29.3922 18.872C29.2242 18.968 29.1162 19.096 29.0682 19.256C29.0202 19.416 28.9962 19.644 28.9962 19.94C28.9962 20.268 29.0202 20.508 29.0682 20.66C29.1162 20.804 29.2082 20.912 29.3442 20.984C29.4802 21.048 29.7042 21.096 30.0162 21.128L32.0322 21.356C32.5122 21.404 32.8842 21.488 33.1482 21.608C33.4122 21.728 33.6042 21.944 33.7242 22.256C33.8362 22.544 33.8922 23.004 33.8922 23.636C33.8922 24.364 33.7802 24.908 33.5562 25.268C33.3322 25.62 33.0322 25.848 32.6562 25.952C32.2802 26.048 31.7642 26.096 31.1082 26.096Z" fill="#C5197D"/>
<circle cx="23" cy="22" r="15.5" stroke="#C5197D"/>
</svg>
