<svg width="46" height="38" viewBox="0 0 46 38" fill="none" xmlns="http://www.w3.org/2000/svg">
<path d="M4.49912 30.7989C5.0243 30.7989 5.43695 30.3862 5.43695 29.8611V20.0514L11.1014 17.0129V25.0594C11.1014 25.5846 11.5141 25.9972 12.0392 25.9972C12.5644 25.9972 12.9771 25.5846 12.9771 25.0594V13.8805L3.58005 18.926V29.8611C3.5613 30.3675 3.97394 30.7989 4.49912 30.7989Z" fill="#C5197D"/>
<path d="M15.7925 23.6895C16.3177 23.6895 16.7303 23.2768 16.7303 22.7516V6.17089L22.3948 3.13234V30.1042C22.3948 30.6294 22.8074 31.042 23.3326 31.042C23.8578 31.042 24.2704 30.6294 24.2704 30.1042V0L14.8546 5.0455V22.7516C14.8546 23.2581 15.2673 23.6895 15.7925 23.6895Z" fill="#C5197D"/>
<path d="M27.0838 29.8234C27.609 29.8234 28.0216 29.4108 28.0216 28.8856V11.0107L33.6861 7.9721V24.159C33.6861 24.6841 34.0987 25.0968 34.6239 25.0968C35.1491 25.0968 35.5617 24.6841 35.5617 24.159V4.83976L26.1647 9.88526V28.8856C26.146 29.4108 26.5774 29.8234 27.0838 29.8234Z" fill="#C5197D"/>
<path d="M45.877 22.4135C45.7082 22.1321 45.4081 21.9446 45.0705 21.9446H38.5995C38.2619 21.9446 37.9618 22.1321 37.793 22.4135C37.6242 22.6948 37.6242 23.0512 37.793 23.3513L38.9559 25.3582L33.7978 28.4906C33.0101 28.9782 32.2411 29.4472 31.4533 29.9348C30.8906 30.2912 30.3279 30.6288 29.784 30.9852C28.3209 31.923 27.0268 32.767 25.8263 33.5923C25.2074 34.005 24.6072 34.4364 23.9882 34.849L15.5853 26.6337L0.430021 36.2745C-0.00137891 36.5559 -0.132674 37.1373 0.148673 37.5687C0.336238 37.8501 0.636342 38.0001 0.936446 38.0001C1.10526 38.0001 1.27406 37.9438 1.44287 37.8501L15.3227 29.0157L23.8006 37.2874L24.9448 36.4621C25.5825 36.0119 26.2202 35.5618 26.8767 35.1304C28.0584 34.3238 29.3338 33.4986 30.7968 32.5607C31.3407 32.2044 31.9034 31.8667 32.4474 31.5104C33.2164 31.0227 34.0042 30.5538 34.7732 30.0661L39.5186 27.1589L39.8937 26.9338L41.0379 28.922C41.2067 29.2033 41.5068 29.3909 41.8444 29.3909C42.182 29.3909 42.4821 29.2033 42.6509 28.922L45.8958 23.3138C46.0458 23.0699 46.0458 22.7136 45.877 22.4135ZM41.8256 26.6149L40.2126 23.8202H43.4387L41.8256 26.6149Z" fill="#C5197D"/>
</svg>
