<svg width="27" height="20" viewBox="0 0 27 20" fill="none" xmlns="http://www.w3.org/2000/svg">
<path d="M0.000669479 10.4189C1.38822 11.6414 2.7765 12.8624 4.1626 14.0863C6.32359 15.9945 8.4824 17.9049 10.6427 19.8139C10.7071 19.8711 10.7745 19.9254 10.8621 20C11.2039 19.6147 11.5399 19.2345 11.8941 18.8348C8.87129 16.1618 5.85866 13.4975 2.7946 10.7883C10.7911 10.7883 18.721 10.7883 26.6654 10.7883C26.6654 10.2618 26.6654 9.76138 26.6654 9.23562C18.7377 9.23562 10.8049 9.23562 2.87281 9.23562C2.86195 9.21534 2.85109 9.19506 2.84095 9.17478C5.85069 6.51266 8.86115 3.85125 11.8919 1.17102C11.5486 0.782127 11.2133 0.401202 10.8599 0C10.5804 0.246225 10.3081 0.484484 10.0365 0.724916C6.719 3.65862 3.40148 6.59159 0.0839539 9.52529C0.0586071 9.54774 0.0281906 9.56585 -5.34058e-05 9.5854C0.000671387 9.86277 0.000669479 10.1409 0.000669479 10.4189Z" fill="white"/>
</svg>
