<svg width="44" height="44" viewBox="0 0 44 44" fill="none" xmlns="http://www.w3.org/2000/svg">
<path d="M21.9441 42.8883C33.5113 42.8883 42.8883 33.5113 42.8883 21.9441C42.8883 10.377 33.5113 1 21.9441 1C10.377 1 1 10.377 1 21.9441C1 33.5113 10.377 42.8883 21.9441 42.8883Z" stroke="#66276E" stroke-width="2" stroke-miterlimit="10" stroke-linecap="round"/>
<path d="M26.2491 31.1317C26.2264 30.8813 26.2098 30.479 26.1967 30.0618C29.9885 29.6735 32.6484 28.7642 32.6484 27.7047C32.6379 27.703 32.6388 27.6611 32.6388 27.6436C29.8044 25.0893 35.0962 6.93688 25.2446 7.30514C24.6259 6.78154 23.5429 6.31641 21.9896 6.31641C8.64555 7.32609 14.5457 24.468 11.5053 27.7039C11.5036 27.7047 11.5009 27.7047 11.4992 27.7047C11.4992 27.7065 11.5001 27.7082 11.5001 27.71C11.5001 27.7108 11.4992 27.7117 11.4992 27.7117C11.4992 27.7117 11.5001 27.7117 11.5009 27.7126C11.5131 28.7502 14.0832 29.6429 17.765 30.0409C17.7545 30.2939 17.7327 30.6072 17.6847 31.1317C16.5659 34.1398 10.8831 34.0011 7.65332 36.9943C9.41874 38.5355 15.4271 43.0001 22.0262 43.0001C28.6254 43.0001 34.1058 39.868 36.2909 37.2334C33.0542 34.3257 27.3565 34.1101 26.2491 31.1317Z" stroke="#66276E" stroke-width="2" stroke-miterlimit="10" stroke-linecap="round"/>
</svg>
